<mxfile host="Electron" agent="Mozilla/5.0 (Windows NT 10.0; Win64; x64) AppleWebKit/537.36 (KHTML, like Gecko) draw.io/28.1.2 Chrome/138.0.7204.243 Electron/37.4.0 Safari/537.36" version="28.1.2">
  <diagram name="PÃ¡gina-1" id="TAZYYFVGmOiwBqu2cngv">
    <mxGraphModel dx="1819" dy="596" grid="1" gridSize="10" guides="1" tooltips="1" connect="1" arrows="1" fold="1" page="1" pageScale="1" pageWidth="827" pageHeight="1169" math="0" shadow="0">
      <root>
        <mxCell id="0" />
        <mxCell id="1" parent="0" />
        <mxCell id="4NUzQ8OtlcHXTNtB0GQe-2" value="" style="verticalLabelPosition=bottom;aspect=fixed;html=1;shape=mxgraph.salesforce.web;fillColorStyles=fillColor2,fillColor3,fillColor4;fillColor2=#032d60;fillColor3=#0d9dda;fillColor4=#ffffff;fillColor=none;strokeColor=none;" vertex="1" parent="1">
          <mxGeometry x="-90" y="401.3" width="60" height="47.400000000000006" as="geometry" />
        </mxCell>
        <mxCell id="4NUzQ8OtlcHXTNtB0GQe-4" value="" style="verticalLabelPosition=bottom;sketch=0;html=1;fillColor=#4D4D4D;verticalAlign=top;align=center;pointerEvents=1;shape=mxgraph.cisco_safe.design.actor_2;" vertex="1" parent="1">
          <mxGeometry x="-80" y="250" width="40" height="100" as="geometry" />
        </mxCell>
        <mxCell id="4NUzQ8OtlcHXTNtB0GQe-5" style="edgeStyle=orthogonalEdgeStyle;rounded=0;orthogonalLoop=1;jettySize=auto;html=1;entryX=0.489;entryY=0.023;entryDx=0;entryDy=0;entryPerimeter=0;snapToPoint=1;flowAnimation=1;" edge="1" parent="1" source="4NUzQ8OtlcHXTNtB0GQe-4" target="4NUzQ8OtlcHXTNtB0GQe-2">
          <mxGeometry relative="1" as="geometry" />
        </mxCell>
        <mxCell id="4NUzQ8OtlcHXTNtB0GQe-8" value="AWS Cloud" style="points=[[0,0],[0.25,0],[0.5,0],[0.75,0],[1,0],[1,0.25],[1,0.5],[1,0.75],[1,1],[0.75,1],[0.5,1],[0.25,1],[0,1],[0,0.75],[0,0.5],[0,0.25]];outlineConnect=0;gradientColor=none;html=1;whiteSpace=wrap;fontSize=12;fontStyle=0;container=1;pointerEvents=0;collapsible=0;recursiveResize=0;shape=mxgraph.aws4.group;grIcon=mxgraph.aws4.group_aws_cloud_alt;strokeColor=#232F3E;fillColor=none;verticalAlign=top;align=left;spacingLeft=30;fontColor=#232F3E;dashed=0;" vertex="1" parent="1">
          <mxGeometry x="110" y="140" width="520" height="440" as="geometry" />
        </mxCell>
        <mxCell id="4NUzQ8OtlcHXTNtB0GQe-11" value="Region" style="sketch=0;outlineConnect=0;gradientColor=none;html=1;whiteSpace=wrap;fontSize=12;fontStyle=0;shape=mxgraph.aws4.group;grIcon=mxgraph.aws4.group_region;strokeColor=#879196;fillColor=none;verticalAlign=top;align=left;spacingLeft=30;fontColor=#879196;dashed=1;" vertex="1" parent="4NUzQ8OtlcHXTNtB0GQe-8">
          <mxGeometry x="20" y="40" width="480" height="370" as="geometry" />
        </mxCell>
        <mxCell id="4NUzQ8OtlcHXTNtB0GQe-10" value="Availability zone" style="sketch=0;outlineConnect=0;gradientColor=none;html=1;whiteSpace=wrap;fontSize=12;fontStyle=0;shape=mxgraph.aws4.group;grIcon=mxgraph.aws4.group_availability_zone;strokeColor=#545B64;fillColor=none;verticalAlign=top;align=left;spacingLeft=30;fontColor=#545B64;dashed=1;" vertex="1" parent="4NUzQ8OtlcHXTNtB0GQe-8">
          <mxGeometry x="40" y="80" width="440" height="300" as="geometry" />
        </mxCell>
        <mxCell id="4NUzQ8OtlcHXTNtB0GQe-1" value="D - EBS" style="outlineConnect=0;dashed=0;verticalLabelPosition=bottom;verticalAlign=top;align=center;html=1;shape=mxgraph.aws3.volume;fillColor=#E05243;gradientColor=none;" vertex="1" parent="4NUzQ8OtlcHXTNtB0GQe-8">
          <mxGeometry x="80" y="255" width="40" height="60" as="geometry" />
        </mxCell>
        <mxCell id="4NUzQ8OtlcHXTNtB0GQe-12" style="edgeStyle=orthogonalEdgeStyle;rounded=0;orthogonalLoop=1;jettySize=auto;html=1;flowAnimation=1;" edge="1" parent="4NUzQ8OtlcHXTNtB0GQe-8" source="4NUzQ8OtlcHXTNtB0GQe-9" target="4NUzQ8OtlcHXTNtB0GQe-1">
          <mxGeometry relative="1" as="geometry" />
        </mxCell>
        <mxCell id="4NUzQ8OtlcHXTNtB0GQe-14" style="edgeStyle=orthogonalEdgeStyle;rounded=0;orthogonalLoop=1;jettySize=auto;html=1;exitX=1;exitY=0.5;exitDx=0;exitDy=0;exitPerimeter=0;flowAnimation=1;" edge="1" parent="4NUzQ8OtlcHXTNtB0GQe-8" source="4NUzQ8OtlcHXTNtB0GQe-9" target="4NUzQ8OtlcHXTNtB0GQe-13">
          <mxGeometry relative="1" as="geometry" />
        </mxCell>
        <mxCell id="4NUzQ8OtlcHXTNtB0GQe-9" value="EC2" style="sketch=0;points=[[0,0,0],[0.25,0,0],[0.5,0,0],[0.75,0,0],[1,0,0],[0,1,0],[0.25,1,0],[0.5,1,0],[0.75,1,0],[1,1,0],[0,0.25,0],[0,0.5,0],[0,0.75,0],[1,0.25,0],[1,0.5,0],[1,0.75,0]];outlineConnect=0;fontColor=#232F3E;fillColor=#ED7100;strokeColor=#ffffff;dashed=0;verticalLabelPosition=bottom;verticalAlign=top;align=center;html=1;fontSize=12;fontStyle=0;aspect=fixed;shape=mxgraph.aws4.resourceIcon;resIcon=mxgraph.aws4.ec2;" vertex="1" parent="4NUzQ8OtlcHXTNtB0GQe-8">
          <mxGeometry x="220" y="260" width="50" height="50" as="geometry" />
        </mxCell>
        <mxCell id="4NUzQ8OtlcHXTNtB0GQe-13" value="E - EBS" style="outlineConnect=0;dashed=0;verticalLabelPosition=bottom;verticalAlign=top;align=center;html=1;shape=mxgraph.aws3.volume;fillColor=#E05243;gradientColor=none;" vertex="1" parent="4NUzQ8OtlcHXTNtB0GQe-8">
          <mxGeometry x="400" y="255" width="40" height="60" as="geometry" />
        </mxCell>
        <mxCell id="4NUzQ8OtlcHXTNtB0GQe-15" value="RDS" style="outlineConnect=0;dashed=0;verticalLabelPosition=bottom;verticalAlign=top;align=center;html=1;shape=mxgraph.aws3.rds;fillColor=#2E73B8;gradientColor=none;" vertex="1" parent="4NUzQ8OtlcHXTNtB0GQe-8">
          <mxGeometry x="320" y="130" width="50" height="60" as="geometry" />
        </mxCell>
        <mxCell id="4NUzQ8OtlcHXTNtB0GQe-16" style="edgeStyle=orthogonalEdgeStyle;rounded=0;orthogonalLoop=1;jettySize=auto;html=1;exitX=0.5;exitY=0;exitDx=0;exitDy=0;exitPerimeter=0;entryX=0;entryY=0.5;entryDx=0;entryDy=0;entryPerimeter=0;flowAnimation=1;" edge="1" parent="4NUzQ8OtlcHXTNtB0GQe-8" source="4NUzQ8OtlcHXTNtB0GQe-9" target="4NUzQ8OtlcHXTNtB0GQe-15">
          <mxGeometry relative="1" as="geometry" />
        </mxCell>
        <mxCell id="4NUzQ8OtlcHXTNtB0GQe-17" style="edgeStyle=orthogonalEdgeStyle;rounded=0;orthogonalLoop=1;jettySize=auto;html=1;entryX=0;entryY=0.5;entryDx=0;entryDy=0;entryPerimeter=0;flowAnimation=1;" edge="1" parent="1" source="4NUzQ8OtlcHXTNtB0GQe-2" target="4NUzQ8OtlcHXTNtB0GQe-1">
          <mxGeometry relative="1" as="geometry" />
        </mxCell>
        <mxCell id="4NUzQ8OtlcHXTNtB0GQe-18" value="Envia arquivo" style="edgeLabel;html=1;align=center;verticalAlign=middle;resizable=0;points=[];" vertex="1" connectable="0" parent="4NUzQ8OtlcHXTNtB0GQe-17">
          <mxGeometry x="-0.3745" y="4" relative="1" as="geometry">
            <mxPoint x="14" y="4" as="offset" />
          </mxGeometry>
        </mxCell>
        <mxCell id="4NUzQ8OtlcHXTNtB0GQe-30" value="AWS Cloud" style="points=[[0,0],[0.25,0],[0.5,0],[0.75,0],[1,0],[1,0.25],[1,0.5],[1,0.75],[1,1],[0.75,1],[0.5,1],[0.25,1],[0,1],[0,0.75],[0,0.5],[0,0.25]];outlineConnect=0;gradientColor=none;html=1;whiteSpace=wrap;fontSize=12;fontStyle=0;container=1;pointerEvents=0;collapsible=0;recursiveResize=0;shape=mxgraph.aws4.group;grIcon=mxgraph.aws4.group_aws_cloud_alt;strokeColor=#232F3E;fillColor=none;verticalAlign=top;align=left;spacingLeft=30;fontColor=#232F3E;dashed=0;" vertex="1" parent="1">
          <mxGeometry x="110" y="610" width="440" height="410" as="geometry" />
        </mxCell>
        <mxCell id="4NUzQ8OtlcHXTNtB0GQe-31" value="Region" style="sketch=0;outlineConnect=0;gradientColor=none;html=1;whiteSpace=wrap;fontSize=12;fontStyle=0;shape=mxgraph.aws4.group;grIcon=mxgraph.aws4.group_region;strokeColor=#879196;fillColor=none;verticalAlign=top;align=left;spacingLeft=30;fontColor=#879196;dashed=1;" vertex="1" parent="4NUzQ8OtlcHXTNtB0GQe-30">
          <mxGeometry x="20" y="40" width="400" height="340" as="geometry" />
        </mxCell>
        <mxCell id="4NUzQ8OtlcHXTNtB0GQe-32" value="Availability zone" style="outlineConnect=0;gradientColor=none;html=1;whiteSpace=wrap;fontSize=12;fontStyle=0;shape=mxgraph.aws4.group;grIcon=mxgraph.aws4.group_availability_zone;strokeColor=#545B64;fillColor=none;verticalAlign=top;align=left;spacingLeft=30;fontColor=#545B64;dashed=1;shadow=0;" vertex="1" parent="4NUzQ8OtlcHXTNtB0GQe-30">
          <mxGeometry x="35" y="80" width="365" height="270" as="geometry" />
        </mxCell>
        <mxCell id="4NUzQ8OtlcHXTNtB0GQe-33" value="S3" style="sketch=0;points=[[0,0,0],[0.25,0,0],[0.5,0,0],[0.75,0,0],[1,0,0],[0,1,0],[0.25,1,0],[0.5,1,0],[0.75,1,0],[1,1,0],[0,0.25,0],[0,0.5,0],[0,0.75,0],[1,0.25,0],[1,0.5,0],[1,0.75,0]];outlineConnect=0;fontColor=#232F3E;fillColor=#7AA116;strokeColor=#ffffff;dashed=0;verticalLabelPosition=bottom;verticalAlign=top;align=center;html=1;fontSize=12;fontStyle=0;aspect=fixed;shape=mxgraph.aws4.resourceIcon;resIcon=mxgraph.aws4.s3;" vertex="1" parent="4NUzQ8OtlcHXTNtB0GQe-30">
          <mxGeometry x="120" y="220" width="60" height="60" as="geometry" />
        </mxCell>
        <mxCell id="4NUzQ8OtlcHXTNtB0GQe-34" value="Lambda&lt;div&gt;.NET Core&lt;/div&gt;" style="sketch=0;points=[[0,0,0],[0.25,0,0],[0.5,0,0],[0.75,0,0],[1,0,0],[0,1,0],[0.25,1,0],[0.5,1,0],[0.75,1,0],[1,1,0],[0,0.25,0],[0,0.5,0],[0,0.75,0],[1,0.25,0],[1,0.5,0],[1,0.75,0]];outlineConnect=0;fontColor=#232F3E;fillColor=#ED7100;strokeColor=#ffffff;dashed=0;verticalLabelPosition=bottom;verticalAlign=top;align=center;html=1;fontSize=12;fontStyle=0;aspect=fixed;shape=mxgraph.aws4.resourceIcon;resIcon=mxgraph.aws4.lambda;" vertex="1" parent="4NUzQ8OtlcHXTNtB0GQe-30">
          <mxGeometry x="220" y="130" width="50" height="50" as="geometry" />
        </mxCell>
        <mxCell id="4NUzQ8OtlcHXTNtB0GQe-35" style="edgeStyle=orthogonalEdgeStyle;rounded=0;orthogonalLoop=1;jettySize=auto;html=1;entryX=0;entryY=0.5;entryDx=0;entryDy=0;entryPerimeter=0;flowAnimation=1;" edge="1" parent="4NUzQ8OtlcHXTNtB0GQe-30" source="4NUzQ8OtlcHXTNtB0GQe-33" target="4NUzQ8OtlcHXTNtB0GQe-34">
          <mxGeometry relative="1" as="geometry">
            <Array as="points">
              <mxPoint x="150" y="155" />
            </Array>
          </mxGeometry>
        </mxCell>
        <mxCell id="4NUzQ8OtlcHXTNtB0GQe-36" value="Trigger" style="edgeLabel;html=1;align=center;verticalAlign=middle;resizable=0;points=[];" vertex="1" connectable="0" parent="4NUzQ8OtlcHXTNtB0GQe-35">
          <mxGeometry x="-0.165" relative="1" as="geometry">
            <mxPoint y="16" as="offset" />
          </mxGeometry>
        </mxCell>
        <mxCell id="4NUzQ8OtlcHXTNtB0GQe-42" value="DynamoDB" style="outlineConnect=0;dashed=0;verticalLabelPosition=bottom;verticalAlign=top;align=center;html=1;shape=mxgraph.aws3.rds;fillColor=#2E73B8;gradientColor=none;" vertex="1" parent="4NUzQ8OtlcHXTNtB0GQe-30">
          <mxGeometry x="320" y="220" width="50" height="60" as="geometry" />
        </mxCell>
        <mxCell id="4NUzQ8OtlcHXTNtB0GQe-45" style="edgeStyle=orthogonalEdgeStyle;rounded=0;orthogonalLoop=1;jettySize=auto;html=1;exitX=1;exitY=0.5;exitDx=0;exitDy=0;exitPerimeter=0;entryX=0.5;entryY=0;entryDx=0;entryDy=0;entryPerimeter=0;flowAnimation=1;" edge="1" parent="4NUzQ8OtlcHXTNtB0GQe-30" source="4NUzQ8OtlcHXTNtB0GQe-34" target="4NUzQ8OtlcHXTNtB0GQe-42">
          <mxGeometry relative="1" as="geometry" />
        </mxCell>
        <mxCell id="4NUzQ8OtlcHXTNtB0GQe-40" style="edgeStyle=orthogonalEdgeStyle;rounded=0;orthogonalLoop=1;jettySize=auto;html=1;flowAnimation=1;" edge="1" parent="1" source="4NUzQ8OtlcHXTNtB0GQe-37" target="4NUzQ8OtlcHXTNtB0GQe-33">
          <mxGeometry relative="1" as="geometry" />
        </mxCell>
        <mxCell id="4NUzQ8OtlcHXTNtB0GQe-41" value="AWS CLI&lt;div&gt;Transfer file&lt;/div&gt;" style="edgeLabel;html=1;align=center;verticalAlign=middle;resizable=0;points=[];" vertex="1" connectable="0" parent="4NUzQ8OtlcHXTNtB0GQe-40">
          <mxGeometry x="-0.0235" y="2" relative="1" as="geometry">
            <mxPoint as="offset" />
          </mxGeometry>
        </mxCell>
        <mxCell id="4NUzQ8OtlcHXTNtB0GQe-37" value="Arquivo" style="strokeWidth=2;html=1;shape=mxgraph.flowchart.document2;whiteSpace=wrap;size=0.25;" vertex="1" parent="1">
          <mxGeometry x="-36.75" y="835" width="90" height="50" as="geometry" />
        </mxCell>
        <mxCell id="4NUzQ8OtlcHXTNtB0GQe-38" value="Sistema de arquivos" style="verticalLabelPosition=bottom;sketch=0;html=1;fillColor=#4D4D4D;verticalAlign=top;align=center;pointerEvents=1;shape=mxgraph.cisco_safe.design.actor_1;" vertex="1" parent="1">
          <mxGeometry x="-170" y="820" width="43.5" height="80" as="geometry" />
        </mxCell>
        <mxCell id="4NUzQ8OtlcHXTNtB0GQe-39" style="edgeStyle=orthogonalEdgeStyle;rounded=0;orthogonalLoop=1;jettySize=auto;html=1;entryX=0;entryY=0.5;entryDx=0;entryDy=0;entryPerimeter=0;flowAnimation=1;exitX=1.09;exitY=0.514;exitDx=0;exitDy=0;exitPerimeter=0;" edge="1" parent="1" source="4NUzQ8OtlcHXTNtB0GQe-38" target="4NUzQ8OtlcHXTNtB0GQe-37">
          <mxGeometry relative="1" as="geometry">
            <mxPoint x="8.349999999999909" y="780" as="sourcePoint" />
            <mxPoint x="8.25" y="850" as="targetPoint" />
          </mxGeometry>
        </mxCell>
      </root>
    </mxGraphModel>
  </diagram>
</mxfile>
